ply
format ascii 1.0
element vertex 151
property float x
property float y
property float z
element face 205
property list uchar int vertex_indices
end_header
185.116 357.884 0
173.377 384.26 0
161.637 410.637 0
171.972 356.354 0
163.371 378.493 0
154.77 400.632 0
157.689 344.689 0
152.027 365.481 0
146.365 386.274 0
141.829 330.829 0
137.854 351.354 0
133.88 371.88 0
121.998 319.474 0
119.911 339.149 0
117.823 358.823 0
98.3975 315.714 0
100.044 329.856 0
101.691 343.998 0
89.7493 320.093 0
85.3425 331.658 0
92.9211 338.837 0
371 317.047 0
359.702 305.822 0
348.403 294.597 0
381.393 300.862 0
370.39 289.851 0
359.387 278.84 0
392.441 285.129 0
381.859 274.426 0
371.277 263.723 0
402.257 268.502 0
392.507 258.349 0
382.757 248.196 0
412.052 251.86 0
402.636 241.903 0
393.221 231.946 0
421.221 234.902 0
413.024 225.796 0
404.828 216.689 0
423.92 227.108 0
421.512 218.512 0
413.896 214.896 0
338.07 290.526 0
322.333 281.992 0
306.596 273.458 0
346.202 266.073 0
330.557 257.627 0
314.912 249.18 0
354.868 241.884 0
339.436 233.508 0
324.005 225.132 0
362.013 217.061 0
348.028 209.301 0
334.042 201.541 0
370.244 192.428 0
356.682 184.953 0
343.12 177.478 0
378.475 167.794 0
365.015 160.557 0
351.554 153.32 0
379.91 156.554 0
372.427 146 0
361.991 145 0
294.735 272.747 0
276.367 270.708 0
258 268.67 0
295 243.505 0
276.5 240.866 0
258 238.227 0
296 214.205 0
277 211.132 0
258 208.058 0
294 184.912 0
277 181.425 0
260 177.937 0
294 155.771 0
277.5 151.779 0
261 147.787 0
295 126.43 0
279 121.984 0
263 117.538 0
294.237 112.909 0
284 103 0
270.921 104.67 0
245.398 271.398 0
227.199 283.717 0
209 296.037 0
236.697 248.241 0
220.689 258.36 0
204.68 268.478 0
229.587 224.432 0
213.115 232.913 0
196.643 241.394 0
220.972 201.122 0
206.057 207.49 0
191.143 213.858 0
214.288 177.195 0
199.69 181.79 0
185.093 186.385 0
208.073 153.074 0
193.537 155.996 0
179 158.918 0
202.496 143.496 0
190.837 140 0
180.094 147.62 0
332.119 666.881 0
272.956 691 0
220 665.647 0
331 575.575 0
277 576.066 0
223 576.557 0
331 522.008 0
277.5 523.15 0
224 524.291 0
332 477.096 0
275.5 478.782 0
219 480.468 0
345.109 433.516 0
290.563 437.802 0
280.612 438.584 0
270.936 439.344 0
217 443.582 0
352.466 400.615 0
303.434 402.784 0
285.062 403.597 0
266.891 404.4 0
215 406.696 0
357.01 370.543 0
315.362 370.331 0
289.31 370.198 0
262.917 370.064 0
213 369.809 0
362.348 342.786 0
326.349 340.44 0
293.368 338.291 0
258.98 336.05 0
211 332.923 0
350.684 323.828 0
343.037 295.037 0
315.948 312.932 0
301.04 277.96 0
276.297 306.575 0
251.799 274 0
232.695 309.753 0
205.999 462.219 0
191.935 443.935 0
177.536 426.536 0
204.271 329.71 0
201.126 399.217 0
187.251 391.739 0
199.058 363.847 0
3 0 1 3
3 1 4 3
3 1 2 4
3 2 5 4
3 3 4 6
3 4 7 6
3 4 5 7
3 5 8 7
3 6 7 9
3 7 10 9
3 7 8 10
3 8 11 10
3 9 10 12
3 10 13 12
3 10 11 13
3 11 14 13
3 12 13 15
3 13 16 15
3 13 14 16
3 14 17 16
3 15 16 18
3 18 16 19
3 19 16 20
3 16 17 20
3 21 22 24
3 22 25 24
3 22 23 25
3 23 26 25
3 24 25 27
3 25 28 27
3 25 26 28
3 26 29 28
3 27 28 30
3 28 31 30
3 28 29 31
3 29 32 31
3 30 31 33
3 31 34 33
3 31 32 34
3 32 35 34
3 33 34 36
3 34 37 36
3 34 35 37
3 35 38 37
3 36 37 39
3 39 37 40
3 40 37 41
3 37 38 41
3 42 43 45
3 43 46 45
3 43 44 46
3 44 47 46
3 45 46 48
3 46 49 48
3 46 47 49
3 47 50 49
3 48 49 51
3 49 52 51
3 49 50 52
3 50 53 52
3 51 52 54
3 52 55 54
3 52 53 55
3 53 56 55
3 54 55 57
3 55 58 57
3 55 56 58
3 56 59 58
3 57 58 60
3 60 58 61
3 61 58 62
3 58 59 62
3 63 64 66
3 64 67 66
3 64 65 67
3 65 68 67
3 66 67 69
3 67 70 69
3 67 68 70
3 68 71 70
3 69 70 72
3 70 73 72
3 70 71 73
3 71 74 73
3 72 73 75
3 73 76 75
3 73 74 76
3 74 77 76
3 75 76 78
3 76 79 78
3 76 77 79
3 77 80 79
3 78 79 81
3 81 79 82
3 82 79 83
3 79 80 83
3 84 85 87
3 85 88 87
3 85 86 88
3 86 89 88
3 87 88 90
3 88 91 90
3 88 89 91
3 89 92 91
3 90 91 93
3 91 94 93
3 91 92 94
3 92 95 94
3 93 94 96
3 94 97 96
3 94 95 97
3 95 98 97
3 96 97 99
3 97 100 99
3 97 98 100
3 98 101 100
3 99 100 102
3 102 100 103
3 103 100 104
3 100 101 104
3 105 106 108
3 106 109 108
3 106 107 109
3 107 110 109
3 108 109 111
3 109 112 111
3 109 110 112
3 110 113 112
3 111 112 114
3 112 115 114
3 112 113 115
3 113 116 115
3 114 115 117
3 115 118 117
3 118 115 119
3 119 115 120
3 115 116 120
3 120 116 121
3 117 118 122
3 118 123 122
3 118 119 123
3 119 124 123
3 119 120 124
3 120 125 124
3 120 121 125
3 121 126 125
3 122 123 127
3 123 128 127
3 123 124 128
3 124 129 128
3 124 125 129
3 125 130 129
3 125 126 130
3 126 131 130
3 127 128 132
3 128 133 132
3 128 129 133
3 129 134 133
3 129 130 134
3 130 135 134
3 130 131 135
3 131 136 135
3 132 137 21
3 132 133 137
3 133 138 137
3 138 23 137
3 22 137 23
3 22 21 137
3 138 139 42
3 133 139 138
3 133 134 139
3 134 140 139
3 140 44 139
3 43 139 44
3 43 42 139
3 140 141 63
3 134 141 140
3 134 135 141
3 135 142 141
3 142 65 141
3 64 141 65
3 64 63 141
3 142 143 84
3 135 143 142
3 135 136 143
3 136 86 143
3 85 143 86
3 85 84 143
3 121 116 144
3 126 121 144
3 144 148 126
3 144 145 148
3 145 149 148
3 145 146 149
3 146 1 149
3 146 2 1
3 131 126 148
3 131 148 150
3 150 148 149
3 150 149 0
3 0 149 1
3 136 131 150
3 136 150 147
3 147 150 0
3 86 136 147
